<svg width="178" height="178" viewBox="0 0 178 178" fill="none" xmlns="http://www.w3.org/2000/svg" xmlns:xlink="http://www.w3.org/1999/xlink">
<path d="M135.594 98.4225L122.732 96.7734L75.2422 103.368L100.966 116.23V110.789H128.833L135.594 98.4225Z" fill="#173774"/>
<path d="M118.506 65.3359L110.414 72.1147L112.163 78.1277L121.894 79.4398L134.031 66.1003L118.506 65.3359Z" fill="#4566A4"/>
<path d="M133.989 66.1406L114.664 76.3972L115.425 78.5931L121.943 79.4716L133.989 66.1406Z" fill="#173774"/>
<path d="M100.941 115.579L77.8711 104.043L82.1401 169.94L113.203 147.052L100.941 115.579Z" fill="#4566A4"/>
<path d="M63.5725 62.2076L74.4203 71.3194L123.098 96.1659L115.344 108.765L77.0625 103.919L74.4203 80.1748L57.1947 76.7827L38.7812 57.8867L63.5725 62.2076Z" fill="#4566A4"/>
<path d="M88.2062 65.1523L74.3594 71.3046L122.753 96.8184L135.65 98.445L110.496 71.9369L88.2062 65.1523Z" fill="#6F93D7"/>
<path d="M50.2967 78.6345L39.4258 58.1562L76.2473 80.7838L82.4862 170.181L39.4258 140.026L66.6026 80.7838L50.2967 78.6345Z" fill="url(#paint0_linear_12908_1024)"/>
<circle cx="64.3783" cy="10.5384" r="2.99154" stroke="#4566A4" stroke-width="2.41018"/>
<circle cx="117.913" cy="10.5384" r="2.99154" stroke="#4566A4" stroke-width="2.41018"/>
<circle cx="71.8314" cy="24.8275" r="2.99154" stroke="#4566A4" stroke-width="2.41018"/>
<circle cx="110.62" cy="24.8275" r="2.99154" stroke="#4566A4" stroke-width="2.41018"/>
<circle cx="50.597" cy="31.4798" r="2.99154" stroke="#4566A4" stroke-width="2.41018"/>
<circle cx="131.683" cy="31.4798" r="2.99154" stroke="#4566A4" stroke-width="2.41018"/>
<circle cx="46.0853" cy="54.3158" r="2.99154" stroke="#4566A4" stroke-width="2.41018"/>
<circle cx="135.511" cy="54.3158" r="2.99154" stroke="#4566A4" stroke-width="2.41018"/>
<path d="M64.372 12.6484V41.2217L72.1315 48.9812M79.8911 56.7408L82.7914 59.6411L82.8847 63.7926L79.8911 65.1531L69.4487 54.7108H49.1445M79.8911 56.7408V47.7476L71.7692 39.6258V28.0223M79.8911 56.7408L72.1315 48.9812M72.1315 48.9812H58.426L50.6665 41.2217V34.404" stroke="#4566A4" stroke-width="3.24855"/>
<path d="M117.964 12.6484V41.2217L110.204 48.9812M102.445 56.7408L99.5446 59.6411L99.4512 64.1185L102.445 65.1531L112.887 54.7108H133.191M102.445 56.7408V47.7476L110.567 39.6258V28.0223M102.445 56.7408L110.204 48.9812M110.204 48.9812H123.91L131.669 41.2217V34.404" stroke="#4566A4" stroke-width="3.24855"/>
<path d="M78.5293 113.744L95.4766 130.724L96.3555 129.203L97.6182 129.932L100.988 115.352L105.812 127.92L98.3818 131.677L97.5312 133.15L100.762 135.514L104.07 149.675L96.9727 139.309L97.377 133.248L95.2266 132.007L79.6006 129.183L79.5059 127.882L79.5859 129.121L47.875 121.191L60.2549 94.4961L78.5293 113.744Z" fill="#6F93D7"/>
<path d="M78.5293 113.744L95.4766 130.724L96.3555 129.203L97.6182 129.932L100.988 115.352L105.812 127.92L98.3818 131.677L97.5312 133.15L100.762 135.514L104.07 149.675L96.9727 139.309L97.377 133.248L95.2266 132.007L79.6006 129.183L79.5059 127.882L79.5859 129.121L47.875 121.191L60.2549 94.4961L78.5293 113.744Z" fill="url(#pattern0_12908_1024)"/>
<defs>
<linearGradient id="paint0_linear_12908_1024" x1="60.956" y1="68.415" x2="60.956" y2="168.936" gradientUnits="userSpaceOnUse">
<stop stop-color="#294780"/>
<stop offset="1" stop-color="#122A57"/>
</linearGradient>
<pattern id="pattern0_12908_1024" patternUnits="userSpaceOnUse" patternTransform="matrix(1.75969 0 0 1.75969 75.0272 120.269)" preserveAspectRatio="none" viewBox="-0.355469 -0.355469 10.998 10.998" width="1" height="1">
<use xlink:href="#pattern0_12908_1024_inner" transform="translate(-21.9961 -21.9961)"/>
<use xlink:href="#pattern0_12908_1024_inner" transform="translate(-10.998 -21.9961)"/>
<use xlink:href="#pattern0_12908_1024_inner" transform="translate(0 -21.9961)"/>
<use xlink:href="#pattern0_12908_1024_inner" transform="translate(-21.9961 -10.998)"/>
<use xlink:href="#pattern0_12908_1024_inner" transform="translate(-10.998 -10.998)"/>
<use xlink:href="#pattern0_12908_1024_inner" transform="translate(0 -10.998)"/>
<use xlink:href="#pattern0_12908_1024_inner" transform="translate(-21.9961 0)"/>
<use xlink:href="#pattern0_12908_1024_inner" transform="translate(-10.998 0)"/>
<g id="pattern0_12908_1024_inner">
<path d="M0 0L21.9961 21.9961" stroke="white"/>
</g>
</pattern></defs>
</svg>
