<svg width="178" height="178" viewBox="0 0 178 178" fill="none" xmlns="http://www.w3.org/2000/svg" xmlns:xlink="http://www.w3.org/1999/xlink">
<path d="M135.867 98.1998L123.005 96.5508L75.5156 103.146L101.239 116.007V110.566H129.106L135.867 98.1998Z" fill="#333333"/>
<path d="M118.779 65.1133L110.688 71.892L112.436 77.905L122.168 79.2171L134.304 65.8776L118.779 65.1133Z" fill="#B3B3B3"/>
<path d="M134.262 65.918L114.938 76.1745L115.698 78.3705L122.216 79.2489L134.262 65.918Z" fill="#898989"/>
<path d="M101.215 115.357L78.1445 103.82L82.4135 169.718L113.477 146.829L101.215 115.357Z" fill="#898989"/>
<path d="M63.846 61.9849L74.6937 71.0967L123.371 95.9433L115.618 108.542L77.336 103.697L74.6937 79.9521L57.4682 76.56L39.0547 57.6641L63.846 61.9849Z" fill="#898989"/>
<path d="M88.4796 64.9297L74.6328 71.0819L123.027 96.5958L135.923 98.2224L110.769 71.7142L88.4796 64.9297Z" fill="#CCCCCC"/>
<path d="M50.5702 78.4119L39.6992 57.9336L76.5208 80.5611L82.7597 169.958L39.6992 139.803L66.8761 80.5611L50.5702 78.4119Z" fill="#333333"/>
<circle cx="64.6517" cy="10.3158" r="2.99154" stroke="#333333" stroke-width="2.41018"/>
<circle cx="118.187" cy="10.3158" r="2.99154" stroke="#333333" stroke-width="2.41018"/>
<circle cx="72.1048" cy="24.6048" r="2.99154" stroke="#333333" stroke-width="2.41018"/>
<circle cx="110.894" cy="24.6048" r="2.99154" stroke="#333333" stroke-width="2.41018"/>
<circle cx="50.8704" cy="31.2572" r="2.99154" stroke="#333333" stroke-width="2.41018"/>
<circle cx="131.956" cy="31.2572" r="2.99154" stroke="#333333" stroke-width="2.41018"/>
<circle cx="46.3587" cy="54.0931" r="2.99154" stroke="#333333" stroke-width="2.41018"/>
<circle cx="135.785" cy="54.0931" r="2.99154" stroke="#333333" stroke-width="2.41018"/>
<path d="M64.6455 12.4258V40.9991L72.405 48.7586M80.1645 56.5181L83.0648 59.4184L83.1582 63.57L80.1645 64.9305L69.7222 54.4881H49.418M80.1645 56.5181V47.525L72.0427 39.4031V27.7997M80.1645 56.5181L72.405 48.7586M72.405 48.7586H58.6994L50.9399 40.9991V34.1814" stroke="#333333" stroke-width="3.24855"/>
<path d="M118.237 12.4258V40.9991L110.478 48.7586M102.718 56.5181L99.818 59.4184L99.7247 63.8958L102.718 64.9305L113.161 54.4881H133.465M102.718 56.5181V47.525L110.84 39.4031V27.7997M102.718 56.5181L110.478 48.7586M110.478 48.7586H124.183L131.943 40.9991V34.1814" stroke="#333333" stroke-width="3.24855"/>
<path d="M78.8027 113.521L95.75 130.501L96.6289 128.98L97.8916 129.709L101.262 115.129L106.086 127.697L98.6553 131.454L97.8047 132.928L101.035 135.291L104.344 149.452L97.2461 139.086L97.6504 133.025L95.5 131.784L79.874 128.96L79.7793 127.659L79.8594 128.898L48.1484 120.969L60.5283 94.2734L78.8027 113.521Z" fill="#B3B3B3"/>
<path d="M78.8027 113.521L95.75 130.501L96.6289 128.98L97.8916 129.709L101.262 115.129L106.086 127.697L98.6553 131.454L97.8047 132.928L101.035 135.291L104.344 149.452L97.2461 139.086L97.6504 133.025L95.5 131.784L79.874 128.96L79.7793 127.659L79.8594 128.898L48.1484 120.969L60.5283 94.2734L78.8027 113.521Z" fill="url(#pattern0_12908_1025)"/>
<defs>
<pattern id="pattern0_12908_1025" patternUnits="userSpaceOnUse" patternTransform="matrix(1.75969 0 0 1.75969 75.3006 120.046)" preserveAspectRatio="none" viewBox="-0.355469 -0.355469 10.998 10.998" width="1" height="1">
<use xlink:href="#pattern0_12908_1025_inner" transform="translate(-21.9961 -21.9961)"/>
<use xlink:href="#pattern0_12908_1025_inner" transform="translate(-10.998 -21.9961)"/>
<use xlink:href="#pattern0_12908_1025_inner" transform="translate(0 -21.9961)"/>
<use xlink:href="#pattern0_12908_1025_inner" transform="translate(-21.9961 -10.998)"/>
<use xlink:href="#pattern0_12908_1025_inner" transform="translate(-10.998 -10.998)"/>
<use xlink:href="#pattern0_12908_1025_inner" transform="translate(0 -10.998)"/>
<use xlink:href="#pattern0_12908_1025_inner" transform="translate(-21.9961 0)"/>
<use xlink:href="#pattern0_12908_1025_inner" transform="translate(-10.998 0)"/>
<g id="pattern0_12908_1025_inner">
<path d="M0 0L21.9961 21.9961" stroke="white"/>
</g>
</pattern></defs>
</svg>
